<svg version="1.1" xmlns="http://www.w3.org/2000/svg" x="0px" y="0px" viewBox="0 0 134 116" xml:space="preserve" width="134" height="116">
  <g>
    <polygon class="polygon" stroke="#000000" points="34.4,114.5 1.7,58 34.4,1.5 99.6,1.5 132.3,58 99.6,114.5"></polygon>
    <path d="M35.2,3l63.5,0l31.8,55l-31.8,55l-63.5,0L3.5,58L35.2,3 M33.5,0L0,58l33.5,58l67,0L134,58L100.5,0L33.5,0L33.5,0z"></path>
  </g>
  <g>
    <path class="stroke-inside" d="M94.7,9.8l27.9,48.1l-27.7,48.2l-55.6,0.1L11.4,58.1L39.1,9.9L94.7,9.8 M96.4,6.8l-59,0.1L8,58.1l29.6,51.1l59-0.1L126,57.9L96.4,6.8L96.4,6.8z"></path>
  </g>
</svg>
